<?xml version="1.0" standalone="no"?>
<!DOCTYPE svg PUBLIC "-//W3C//DTD SVG 1.1//EN" "http://www.w3.org/Graphics/SVG/1.1/DTD/svg11.dtd" >
<svg xmlns="http://www.w3.org/2000/svg">
<metadata>Generated by IcoMoon</metadata>
<defs>
<font id="pbscoicon" horiz-adv-x="1024">
<font-face units-per-em="1024" ascent="960" descent="-64" />
<missing-glyph horiz-adv-x="1024" />
<glyph unicode="&#x20;" horiz-adv-x="512" d="" />
<glyph unicode="&#xe900;" glyph-name="activity" d="M986.080 960h-948.128c-19.92 0-35.904-16.176-35.904-36.064v-951.92c0-19.888 15.984-36.016 35.904-36.016h948.128c19.728 0 35.872 16.128 35.872 36.016v951.92c0 19.888-16.144 36.064-35.872 36.064zM950.032 8.064h-876.208v879.824h876.208v-879.824zM248.512 628.704h472.528c19.728 0 35.872 16.176 35.872 36.048 0 19.92-16.144 36.048-35.872 36.048h-472.528c-19.92 0-35.904-16.128-35.904-36.048 0-19.872 15.984-36.048 35.904-36.048zM248.512 442.112h289.664c19.92 0 35.904 16.16 35.904 36.048 0 19.872-15.984 36.048-35.904 36.048h-289.664c-19.92 0-35.904-16.176-35.904-36.048 0-19.888 15.984-36.048 35.904-36.048zM248.512 268.224h399.936c19.92 0 35.904 16.176 35.904 36.048 0 19.744-15.984 35.872-35.904 35.872h-399.936c-19.92 0-35.904-16.128-35.904-35.872 0-19.888 15.984-36.048 35.904-36.048z" />
<glyph unicode="&#xe901;" glyph-name="alert" d="M889.088 191.936c-39.536 0-83.84 73.008-83.84 170.704v170.704c0 150.144-109.488 274.416-251.28 295.248v88.704c0 23.616-18.832 42.704-41.92 42.704-23.2 0-41.888-19.088-41.888-42.704v-88.704c-141.904-20.8-251.44-145.088-251.44-295.248v-170.704c0-97.68-44.176-170.704-83.792-170.704-23.088 0-41.904-19.072-41.904-42.544 0-23.616 18.816-42.72 41.904-42.72h209.536c0-94.080 75.12-170.672 167.6-170.672 92.368 0 167.632 76.592 167.632 170.672h209.424c23.2 0 41.888 19.104 41.888 42.72-0.016 23.472-18.704 42.544-41.92 42.544zM512.048 21.408c-46.16 0-83.792 38.16-83.792 85.264h167.616c-0.016-47.104-37.632-85.264-83.824-85.264zM631.808 191.936c-0.32 0-0.592 0-0.896 0h-237.712c-0.32 0-0.608 0-0.896 0h-131.776c26.176 45.008 42 104.464 42 170.704v170.704c0 117.584 93.968 213.392 209.52 213.392 115.44 0 209.552-95.808 209.552-213.392v-170.704c0-66.24 15.808-125.68 41.952-170.704h-131.744z" />
<glyph unicode="&#xe902;" glyph-name="arrow" d="M831.152 444.208c0-19.088-7.68-36.784-22.24-50.112l-486.528-440.864c-29.792-27.328-79.296-27.328-109.088 0-30.48 27.248-29.824 72.288 0 99.552l431.344 391.424-430.72 392c-30.448 27.888-30.448 72.304 0 99.616 29.824 27.888 79.296 27.888 109.12 0l485.872-442.176c14.56-13.312 22.24-31.104 22.24-49.44z" />
<glyph unicode="&#xe903;" glyph-name="arrow-l" d="M190.688 445.28c0 19.072 7.68 36.784 22.256 50.112l486.512 440.848c29.792 27.328 79.296 27.328 109.088 0 30.48-27.248 29.824-72.288 0-99.552l-431.344-391.408 430.72-392c30.448-27.904 30.448-72.32 0-99.632-29.824-27.888-79.296-27.888-109.12 0l-485.856 442.176c-14.576 13.312-22.256 31.12-22.256 49.456z" />
<glyph unicode="&#xe904;" glyph-name="caret" d="M511.52 95.968c-18.752 0-36.976 8.112-50.192 22.752l-440.864 485.488c-27.36 30.432-27.36 79.088 0.496 109.472 27.36 29.888 71.92 29.888 99.344-0.48l391.2-430.752 392.208 430.752c27.408 29.888 72 29.888 99.376 0 27.856-30.384 27.856-79.088 0-109.472l-441.936-485.488c-13.168-14.16-30.88-22.272-49.632-22.272z" />
<glyph unicode="&#xe905;" glyph-name="checkmark" d="M1002.56 676.656v0l-560.752-560.736c-13.232-13.248-31.52-21.44-51.696-21.44-20.224 0-38.496 8.192-51.744 21.44l-316.96 316.96c-13.232 13.232-21.408 31.488-21.408 51.696 0 40.384 32.736 73.136 73.136 73.136 20.208 0 38.48-8.176 51.712-21.408l265.248-265.248 509.024 509.040c13.232 13.248 31.52 21.408 51.712 21.408 40.368 0 73.136-32.752 73.136-73.136 0.032-20.176-8.16-38.464-21.408-51.712z" />
<glyph unicode="&#xe906;" glyph-name="clock" d="M512.144 960.256c-282.304 0-512.144-229.824-512.144-512.128 0-282.544 229.84-512.368 512.144-512.368 282.272-0.016 511.856 229.824 511.856 512.368 0 282.304-229.584 512.128-511.856 512.128zM512.144 21.152c-235.44 0-426.752 191.568-426.752 426.976 0 235.168 191.312 426.72 426.752 426.72 235.136 0 426.448-191.568 426.448-426.72 0-235.408-191.312-426.976-426.448-426.976zM554.72 465.824v281.056c0 23.584-19.008 42.592-42.576 42.592-23.824 0-42.832-19.008-42.832-42.592v-298.752c0-11.84 4.816-22.576 12.624-30.336 0.016-0.032 0.032-0.064 0.048-0.080l170.528-170.512c8.352-8.368 19.248-12.672 30.16-12.672 10.896 0 21.792 4.304 30.176 12.672 16.704 16.48 16.704 43.584 0 60.304l-158.128 158.32z" />
<glyph unicode="&#xe907;" glyph-name="course-new" d="M733.392 116.784h-156.384l-12.384 73.84c-2.848 16.272-16.944 28.336-33.552 28.336h-192.4c-15.696 0-29.248-10.736-32.976-25.856l-18.976-76.336h-158.48c-22.928 0-42 16.72-45.616 38.608l67.968 122.064 9.472 11.040c18.848 21.92 20.768 24.192 42.912 24.192h275.472c6 0 11.568 1.664 16.448 4.384h4.32c18.736 0 33.984 15.232 33.984 34.080 0 18.768-15.248 34-33.984 34h-296.24c-25.52 0-46.304 20.784-46.304 46.4v290.288c0 25.52 20.768 46.288 46.304 46.288h462.416c25.536 0 46.416-20.768 46.416-46.288v-65.6c0-18.72 15.12-33.968 33.872-33.968 18.736 0 33.968 15.248 33.968 33.968v65.6c0 63.104-51.248 114.368-114.272 114.368h-462.4c-63.008 0-114.256-51.264-114.256-114.368v-290.256c0-32.176 13.376-61.248 34.784-82.080-5.104-5.232-9.952-10.8-14.928-16.608-3.376-3.952-7.008-8.144-11.072-12.752-1.68-1.936-3.28-3.952-4.512-6.224l-74.752-134.24c-2.816-5.072-4.288-10.736-4.288-16.48 0-63.104 51.264-114.464 114.272-114.464h605.152c18.72 0 33.968 15.216 33.968 33.968 0.016 18.864-15.232 34.096-33.952 34.096zM365.216 150.88h137.168l5.728-34.096h-151.328l8.432 34.096zM1004 384.48h-143.504v143.84c0 18.736-15.12 33.984-33.968 33.984-18.752 0-33.872-15.232-33.872-33.984v-143.824h-143.504c-18.864 0-33.984-15.136-33.984-34 0-18.848 15.12-33.968 33.984-33.968h143.504v-143.84c0-18.736 15.12-33.968 33.872-33.968 18.848 0 33.968 15.232 33.968 33.968v143.84h143.504c18.752 0 33.968 15.12 33.968 33.968s-15.216 33.984-33.968 33.984zM504.304 637.936c0 18.848-15.248 34.096-33.984 34.096h-187.072c-18.736 0-33.872-15.248-33.872-34.096 0-18.736 15.12-33.984 33.872-33.984h187.072c18.736 0.016 33.984 15.248 33.984 33.984zM283.248 559.68c-18.736 0-33.872-15.12-33.872-33.968 0-18.864 15.12-34 33.872-34h114.48c18.736 0 33.984 15.12 33.984 34 0 18.848-15.248 33.968-33.984 33.968h-114.48z" />
<glyph unicode="&#xe908;" glyph-name="delete" d="M895.040 789.344h-170.128v42.752c0 70.464-57.264 127.904-127.744 127.904h-170.32c-70.32 0-127.568-57.44-127.568-127.904v-42.752h-170.32c-23.488 0-42.576-19.072-42.576-42.56 0-23.664 19.088-42.752 42.576-42.752h766.080c23.472 0 42.56 19.088 42.56 42.752 0.016 23.488-19.088 42.56-42.56 42.56zM384.432 789.344v42.752c0 23.488 19.088 42.576 42.416 42.576h170.32c23.472 0 42.56-19.088 42.56-42.576v-42.752h-255.296zM809.904 618.72h-595.776c-23.488 0-42.592-19.088-42.592-42.752v-597.392c0-23.504 19.104-42.576 42.592-42.576h595.776c23.648 0 42.56 19.072 42.56 42.576v597.392c0 23.664-18.912 42.752-42.56 42.752zM767.488 21.312h-510.784v512.080h510.768v-512.080zM426.848 106.624c23.648 0 42.576 19.088 42.576 42.592v256.112c0 23.488-18.928 42.736-42.576 42.736-23.504 0-42.416-19.248-42.416-42.736v-256.112c0-23.504 18.912-42.592 42.416-42.592zM597.168 106.624c23.472 0 42.56 19.088 42.56 42.592v256.112c0 23.488-19.088 42.736-42.56 42.736-23.504 0-42.576-19.248-42.576-42.736v-256.112c0-23.504 19.072-42.592 42.576-42.592z" />
<glyph unicode="&#xe909;" glyph-name="download-doc" d="M780.128 244.4l-23.088-23.424v130.048c0 23.648-18.832 42.72-42.032 42.72-23.36 0-42.176-19.072-42.176-42.72v-132.976l-26.032 26.336c-16.4 16.704-43.104 16.704-59.536 0-16.4-16.688-16.4-43.664 0-60.336l96.496-97.68c8.144-8.288 18.96-12.544 29.744-12.544 10.816 0 21.504 4.272 29.76 12.544l96.48 97.68c16.416 16.672 16.416 43.648 0 60.336-16.528 16.72-43.056 16.72-59.616 0.016zM883.28 479.408v182.064c0 11.2-4.4 22.144-12.416 30.16l-252.608 255.968c-7.904 8-18.688 12.4-29.776 12.4h-421.264c-23.36 0-42.16-19.088-42.16-42.576v-938.736c0-23.616 18.8-42.688 42.16-42.688h547.504c162.688 0 294.944 134.128 294.944 298.656 0 101.216-50.080 190.704-126.384 244.752zM630.496 814.448l109.008-110.416h-109.008v110.416zM209.28 21.408v853.328h337.040v-213.264c0-23.632 18.8-42.72 42.176-42.72h210.592v-98c-26.752 8.096-55.024 12.592-84.352 12.592-162.544 0-294.864-134.016-294.864-298.688 0-83.472 34.112-158.992 88.864-213.248h-299.456zM714.72 21.408c-116.096 0-210.656 95.696-210.656 213.248 0 117.712 94.56 213.392 210.656 213.392 116.24 0 210.72-95.664 210.72-213.392 0-117.552-94.48-213.248-210.72-213.248z" />
<glyph unicode="&#xe90a;" glyph-name="duplicate" d="M975.248 765.616h-146.336v146.72c0 27.104-21.872 48.976-48.8 48.976h-731.328c-26.912 0-48.784-21.872-48.784-48.976v-733.36c0-26.928 21.872-48.8 48.784-48.8h146.336v-146.736c0-26.896 21.664-48.752 48.576-48.752h731.552c26.896 0 48.752 21.856 48.752 48.752v733.408c0 26.896-21.856 48.768-48.752 48.768zM97.568 863.568h633.76v-635.648h-633.76v635.648zM926.48 32.384h-633.984v97.776h487.616c26.928 0 48.8 21.872 48.8 48.8v488.912h97.584v-635.488z" />
<glyph unicode="&#xe90b;" glyph-name="edit" d="M967.568 907.488c-70.048 70.032-191.952 70.032-261.824 0l-544.752-546.048c-4.288-4.48-7.84-9.696-10.256-15.312l-146.224-341.952c-7.84-18.48-3.728-39.76 10.448-53.76 9.328-9.552 21.664-14.416 34.368-14.416 6.528 0 13.072 1.312 19.232 3.936l340.144 146.224c0.016 0 0.032 0 0.048 0l0.816 0.352c5.792 2.432 10.816 5.984 15.312 10.32l544.752 546.208c72.048 72.288 72.048 190.128-2.064 264.448zM390.352 200.528l-125.888 126.24 418.208 419.392 126-126.304-418.32-419.328zM211.984 241.232l93.024-93.296-162.88-69.968 69.856 163.264zM900.736 712.16l-23.136-23.2-126 126.304 23.056 23.12c33.024 33.232 89.056 35.104 126.080-1.872 34.144-34.352 34.144-90.176 0-124.352z" />
<glyph unicode="&#xe90c;" glyph-name="help" d="M1024 267.152c0 149.216-100.624 279.504-242.336 318.8-8.976 207.76-180.704 373.968-390.752 373.968-215.6 0-390.912-175.328-390.912-390.928 0-70.304 18.592-138.624 54.144-198.656l-52.672-190.8 190.8 52.688c55.12-32.624 117.408-51.008 181.664-53.808 39.312-141.712 169.776-242.32 318.976-242.32 59.696 0 117.584 15.968 168.448 45.968l161.12-44.528-44.512 161.12c30.224 50.912 46.032 108.784 46.032 168.496zM212.976 289.968l-11.248 7.152-114.336-31.632 31.648 114.32-7.168 11.248c-33.92 53.008-51.872 114.656-51.872 177.936 0 182.496 148.4 330.896 330.912 330.896 182.672 0 331.056-148.4 331.056-330.896s-148.384-330.896-331.056-330.896c-63.28 0-124.768 17.936-177.936 51.872zM936.416 23.632l-84.672 23.344-11.392-7.344c-43.872-28.368-94.928-43.568-147.44-43.568-117.232 0-220.32 75.872-256.832 184.624 179.536 20.72 322.56 163.6 343.28 343.296 108.784-36.528 184.608-139.616 184.608-256.832 0-52.72-15.008-103.6-43.552-147.44l-7.328-11.44 23.328-84.64zM360.896 417.968h60v-60h-60v60zM390.912 780.016c-66.048 0-119.872-53.824-119.872-120.032h59.872c0 33.104 26.896 60.016 60 60.016s60.016-26.912 60.016-60.016c0-17.136-6.848-32.784-19.584-44.352l-70.448-64.4v-73.232h60v46.8l51.056 46.64c24.8 22.672 38.976 54.976 38.976 88.56 0 66.208-53.824 120.016-120.016 120.016z" />
<glyph unicode="&#xe90d;" glyph-name="helper" d="M512.080 959.904c-282.448 0-512.080-229.616-512.080-511.92s229.632-511.888 512.080-511.888c282.272 0 511.92 229.584 511.92 511.888s-229.648 511.92-511.92 511.92zM512.080 21.36c-235.328 0-426.784 191.312-426.784 426.624 0 235.168 191.456 426.448 426.784 426.448 235.184 0 426.608-191.28 426.608-426.448 0-235.312-191.424-426.624-426.608-426.624zM542.416 743.984c-50.56 8.8-101.616-4.896-140.272-37.52-38.64-32.432-60.832-79.888-60.832-130.624 0-23.472 19.088-42.56 42.736-42.56 23.472 0 42.56 19.088 42.56 42.56 0 25.456 11.088 49.248 30.496 65.392 19.568 16.64 44.688 23.008 70.8 18.592 33.584-5.856 62.288-34.4 67.984-68.16 6.496-37.184-10.288-72.736-42.72-90.512-51.712-28.544-83.84-85.776-83.84-149.536v-31.616c0-23.664 19.088-42.752 42.736-42.752 23.504 0 42.576 19.072 42.576 42.752v31.632c0 32.112 15.648 61.488 39.616 74.688 63.952 35.216 98.336 107.472 85.776 180.032-12.048 68.96-68.624 125.568-137.616 137.632zM512.080 234.688c-23.648 0-42.736-19.088-42.736-42.72 0-23.504 19.088-42.576 42.736-42.576 23.504 0 42.576 19.072 42.576 42.576 0 23.632-19.072 42.72-42.576 42.72z" />
<glyph unicode="&#xe90e;" glyph-name="location" d="M511.856 960c-179.536 0-325.568-147.44-325.568-329.152 0-45.92 9.392-90.464 27.36-132.224l0.832-1.376 268.32-542.976c5.52-11.344 16.896-18.272 29.056-18.272 12.448 0 23.76 6.928 29.328 18.272l268.896 544.352c18.208 41.76 27.664 86.304 27.664 132.224-0.032 181.712-146.112 329.152-325.888 329.152zM750.576 526.016l-238.72-482.976-238.448 482.976c-14.4 33.168-21.584 68.608-21.584 104.832 0 145.216 116.752 263.040 260.032 263.040 143.52 0 260.272-117.824 260.272-263.040 0-36.224-7.184-71.664-21.552-104.832zM511.856 809.536c-97.36 0-176.768-79.968-176.768-178.688 0-98.464 79.408-178.416 176.768-178.416 97.664 0 176.752 79.968 176.752 178.416 0 98.736-79.088 178.688-176.752 178.688zM511.856 518.56c-61.136 0-111.184 50.336-111.184 112.304 0 62.24 50.048 112.56 111.184 112.56 61.408 0 111.488-50.336 111.488-112.56 0-61.984-50.080-112.304-111.488-112.304z" />
<glyph unicode="&#xe90f;" glyph-name="quiz" d="M646.608 8.064h-574.096v879.84h457.632c19.744 0 35.872 16.144 35.872 36.048 0 19.888-16.128 36.048-35.872 36.048h-493.52c-19.904 0-35.872-16.16-35.872-36.048v-951.936c0-19.888 15.968-36.016 35.872-36.016h609.984c19.888 0 35.872 16.128 35.872 36.016 0 19.936-15.984 36.048-35.872 36.048zM539.136 664.768c0 19.92-15.984 36.048-35.904 36.048h-260.912c-19.744 0-35.888-16.128-35.888-36.048s16.144-36.064 35.888-36.064h260.928c19.904 0 35.888 16.16 35.888 36.064zM242.32 442.128h179.728c19.728 0 35.888 16.144 35.888 36.048s-16.16 36.048-35.888 36.048h-179.728c-19.744 0-35.888-16.144-35.888-36.048s16.128-36.048 35.888-36.048zM242.32 268.272h248.080c19.696 0 35.856 16.16 35.856 36.048 0 19.728-16.16 35.856-35.856 35.856h-248.080c-19.744 0-35.888-16.128-35.888-35.856-0.016-19.904 16.128-36.048 35.888-36.048zM987.376 960h-314.976c-19.888 0-35.872-16.16-35.872-36.048v-768.4c0-8.96 3.264-17.424 9.104-24.144l149.904-168.16c6.528-7.344 15.984-11.744 25.792-11.92h0.976c9.632 0 18.736 3.712 25.616 10.784l165.072 168.16c6.672 6.704 10.256 15.808 10.256 25.28v768.4c0 19.888-15.952 36.048-35.872 36.048zM951.52 170.24l-127.92-130.336-115.328 129.376v544.432h184.64c19.744 0 35.904 16.144 35.904 36.048s-16.16 36.048-35.904 36.048h-184.64v102.096h243.248v-717.664z" />
<glyph unicode="&#xe910;" glyph-name="search" d="M427.024 928.304c-235.424 0-427.024-190.864-427.024-425.808 0-234.96 191.6-425.808 427.040-425.808 235.232 0 426.816 190.864 426.816 425.808-0.016 234.944-191.584 425.808-426.832 425.808zM427.024 160.592c-189.056 0-342.912 153.328-342.912 341.904 0 188.544 153.856 341.904 342.912 341.904 188.832 0 342.672-153.36 342.672-341.904 0-188.576-153.84-341.904-342.672-341.904zM1010.752 40.208l-166.512 156.624c-16.992 15.984-43.616 14.96-59.584-1.776-15.968-16.992-15.2-43.6 1.776-59.296l166.784-156.624c8.080-7.616 18.48-11.424 28.624-11.424 11.392 0 22.576 4.576 30.672 13.2 15.968 16.96 15.2 43.568-1.76 59.296z" />
<glyph unicode="&#xe911;" glyph-name="settings" d="M1008.256 571.824c-3.168 11.728-11.040 21.44-22.096 27.056-11.040 5.392-24.112 5.856-35.376 1.328-10.128-4.048-20.96-6.080-32-6.080-30.4 0-58.784 16.016-74.112 41.92-21.408 35.6-11.936 82 21.616 107.488 9.696 7.424 15.792 18.688 16.464 30.624 0.672 12.16-4.064 23.888-12.864 32.208-61.504 58.816-137.648 101.856-219.888 123.92-11.696 3.392-24.56 1.36-34.672-5.408-10.384-6.512-17.136-17.12-18.96-29.040-5.632-41.232-41.904-72.112-84.48-72.112-42.352 0-78.608 30.88-84.48 72.112-1.568 11.92-8.336 22.528-18.704 29.040-10.368 6.768-23.008 8.8-34.928 5.408-82.24-22.064-158.16-65.104-219.664-123.92-8.8-8.32-13.52-20.048-12.848-32.208 0.672-11.936 6.544-23.2 16.448-30.624 33.568-25.488 42.816-71.888 21.632-107.728-20.72-35.136-67.824-50.912-106.112-35.6-11.504 4.528-24.336 4.064-35.376-1.328-11.024-5.632-19.136-15.328-22.080-27.056-10.592-40.768-15.776-82.208-15.776-123.92 0-41.456 5.184-83.12 15.76-123.68 2.944-11.696 11.040-21.616 22.080-27.024s23.888-6.064 35.376-1.36c38.528 15.344 85.392-0.656 106.112-35.808 21.184-35.824 11.936-82.016-21.632-107.68-9.904-7.44-15.776-18.48-16.448-30.64-0.672-11.952 4.048-23.664 12.848-32.24 61.504-58.8 137.44-101.616 219.664-123.92 11.92-3.12 24.544-1.104 34.928 5.408 10.352 6.784 17.136 17.36 18.704 29.312 5.872 41.008 42.128 72.080 84.48 72.080 42.576 0 78.864-31.056 84.48-72.080 1.808-11.952 8.56-22.528 18.96-29.312 6.96-4.48 15.088-6.752 23.408-6.752 3.824 0 7.664 0.448 11.264 1.344 82.464 22.32 158.384 65.12 219.888 123.92 8.8 8.576 13.536 20.288 12.864 32.24-0.672 12.16-6.768 23.2-16.464 30.64-33.552 25.664-43.008 71.856-21.616 107.68 20.736 35.152 67.6 51.152 106.112 35.808 11.504-4.48 24.336-4.048 35.376 1.36 11.040 5.424 18.928 15.328 22.096 27.024 10.576 40.56 15.744 82.24 15.744 123.68 0.016 41.712-5.152 83.152-15.728 123.92zM933.664 384.864c-64.864 5.632-129.76-27.296-162.896-82.944-33.792-57.216-29.056-127.52 8.336-179.776-34.016-26.592-71.872-48.016-112.432-63.328-27.248 57.696-87.184 96.896-154.784 96.896s-127.28-39.184-154.784-96.896c-40.304 15.312-78.176 36.736-112.208 63.328 37.408 52.272 42.128 122.56 8.336 179.776-33.12 55.648-98.016 88.56-163.12 82.944-3.152 20.944-4.96 42.112-4.96 63.040 0 21.184 1.808 42.384 4.96 63.328 64.88-5.408 130 27.008 163.12 82.688 33.792 57.232 28.848 127.744-8.336 179.808 34.032 26.576 71.904 48.208 112.208 63.296 27.504-57.456 87.2-96.88 154.784-96.88s127.536 39.424 154.784 96.88c40.56-15.088 78.416-36.72 112.432-63.296-37.408-52.064-42.144-122.576-8.336-179.6 30.432-51.584 87.2-83.6 148.016-83.6 4.976 0 9.92 0.256 14.88 0.688 3.392-20.944 4.976-42.144 4.976-63.328-0.016-20.912-1.6-42.096-4.976-63.024zM511.888 614.88c-93.952 0-170.544-74.816-170.544-166.976 0-91.92 76.592-166.96 170.544-166.96 94.192 0 170.784 75.024 170.784 166.96 0 92.16-76.592 166.976-170.784 166.976zM511.888 364.56c-47.088 0-85.168 37.408-85.168 83.344 0 46.224 38.080 83.616 85.168 83.616 47.104 0 85.392-37.392 85.392-83.616 0-45.936-38.272-83.344-85.392-83.344z" />
<glyph unicode="&#xe912;" glyph-name="upload" d="M768 703.952c-9.344 0-18.72-0.8-28.048-1.856-48.832 104.464-153.232 172.48-270.64 172.48-151.552 0-276.736-113.44-295.872-259.744-98.64-18.768-173.44-105.536-173.44-209.456 0-117.68 95.648-213.312 213.312-213.312h127.936c23.6 0 42.688 19.088 42.688 42.688 0 23.504-19.088 42.56-42.688 42.56h-127.936c-70.576 0-128.064 57.472-128.064 128.064 0 70.576 57.488 127.952 128.064 127.952 23.616 0 42.688 19.072 42.688 42.672 0 117.552 95.648 213.328 213.312 213.328 92.96 0 174.656-59.696 203.408-148.368 0.336-1.008 0.864-1.904 1.28-2.88 0.544-1.392 1.088-2.768 1.776-4.080 0.64-1.2 1.408-2.304 2.176-3.44 0.784-1.216 1.568-2.416 2.48-3.536 0.816-1.008 1.76-1.888 2.672-2.8 1.024-1.056 2.064-2.112 3.168-3.040 0.976-0.784 2.016-1.472 3.040-2.176 1.232-0.832 2.432-1.664 3.744-2.384 1.104-0.608 2.304-1.088 3.472-1.6 1.312-0.56 2.608-1.152 3.984-1.584 1.328-0.432 2.704-0.688 4.080-0.992 1.264-0.272 2.528-0.56 3.824-0.72 1.568-0.176 3.136-0.176 4.736-0.176 1.168 0 2.352-0.048 3.536 0.032 1.648 0.128 3.232 0.464 4.848 0.8 0.944 0.192 1.856 0.208 2.8 0.448 14.4 3.92 29.104 5.872 43.664 5.872 94.048 0 170.624-76.576 170.624-170.64 0-94.176-76.576-170.736-170.624-170.736h-85.376c-23.616 0-42.672-19.056-42.672-42.56 0-23.6 19.056-42.688 42.672-42.688h85.376c141.152 0 256 114.848 256 256s-114.848 255.872-256 255.872zM639.952 320c10.88 0 21.872 4.16 30.192 12.464 16.656 16.784 16.656 43.664 0 60.432l-128.032 127.936c-0.56 0.56-1.232 0.96-1.808 1.472-1.504 1.344-3.008 2.688-4.688 3.824-1.024 0.688-2.144 1.168-3.216 1.76-1.376 0.752-2.704 1.568-4.144 2.176-1.2 0.512-2.48 0.768-3.696 1.152-1.44 0.448-2.816 0.976-4.288 1.264-2.192 0.448-4.416 0.592-6.656 0.672-0.528 0.016-1.040 0.16-1.616 0.16-0.016 0-0.016 0-0.048 0-2.816 0-5.6-0.304-8.368-0.848-0.96-0.176-1.824-0.56-2.736-0.8-1.776-0.48-3.552-0.928-5.264-1.632-0.992-0.416-1.872-1.008-2.816-1.488-1.536-0.768-3.088-1.488-4.528-2.464-1.28-0.864-2.4-1.92-3.568-2.912-0.96-0.784-1.984-1.44-2.864-2.336l-128.064-127.936c-16.64-16.784-16.64-43.664 0-60.432 8.432-8.304 19.312-12.464 30.192-12.464 10.896 0 21.888 4.16 30.208 12.464l55.168 55.216v-323.568c0-23.632 19.088-42.688 42.688-42.688 23.488 0 42.56 19.056 42.56 42.688v323.568l55.152-55.216c8.464-8.304 19.328-12.464 30.24-12.464z" />
<glyph unicode="&#xe913;" glyph-name="video" d="M725.392 474.112l-298.608 170.576c-13.216 7.504-29.344 7.504-42.56-0.176-13.2-7.664-21.2-21.68-21.2-36.848v-341.328c0-15.184 8-29.216 21.2-36.88 6.672-3.744 14.016-5.696 21.36-5.696s14.672 1.776 21.2 5.568l298.608 170.752c13.376 7.472 21.536 21.664 21.536 37.008 0 15.168-8.16 29.344-21.536 37.024zM448.32 339.888v194.224l169.92-97.008-169.92-97.216zM512.080 959.92c-282.304 0-512.080-229.776-512.080-511.92 0-282.288 229.776-511.92 512.080-511.92s511.92 229.632 511.92 511.92c0 282.144-229.632 511.92-511.92 511.92zM512.080 21.392c-235.328 0-426.624 191.296-426.624 426.608 0 235.168 191.296 426.464 426.624 426.464 235.168 0 426.624-191.296 426.624-426.464 0-235.312-191.456-426.608-426.624-426.608z" />
<glyph unicode="&#xe914;" glyph-name="x" d="M1024 890.912l-69.392 69.424-442.608-442.768-442.624 442.768-69.376-69.424 442.528-442.832-442.496-442.672 69.312-69.744 442.656 442.928 442.64-442.928 69.328 69.744-442.512 442.672z" />
</font>
</defs>
</svg>
